@startuml
'https://plantuml.com/class-diagram

abstract class UIAsset {
    private Button button
    private SliderBar slider
}

abstract class AbstractList
abstract AbstractCollection
interface List
interface Collection

List <|-- AbstractList
Collection <|-- AbstractCollection

Collection <|- List
AbstractCollection <|- AbstractList
AbstractList <|-- ArrayList

interface IDislikeFood {}

class ArrayList {
Object[] elementData
size()
}

enum TimeUnit {
DAYS
HOURS
MINUTES
SECONDS
}

class koo {
bool Taehan
int BP

}

class jin {
bool jinZa
}

'테스트'

@enduml